<mxfile host="app.diagrams.net" modified="2021-04-08T16:32:26.748Z" agent="5.0 (Windows NT 10.0; Win64; x64) AppleWebKit/537.36 (KHTML, like Gecko) Chrome/89.0.4389.114 Safari/537.36" etag="1LLbSomq-v2GJRFHVQm0" version="14.5.8" type="github">
  <diagram id="wtWN-sZVKBxJbHOzWp4z" name="Page-1">
    <mxGraphModel dx="777" dy="477" grid="1" gridSize="10" guides="1" tooltips="1" connect="1" arrows="1" fold="1" page="1" pageScale="1" pageWidth="850" pageHeight="1100" math="0" shadow="0">
      <root>
        <mxCell id="0" />
        <mxCell id="1" parent="0" />
        <mxCell id="NMOJ02SbNHNsowuzArKs-1" value="" style="rounded=0;whiteSpace=wrap;html=1;fillColor=#fff2cc;strokeColor=none;" vertex="1" parent="1">
          <mxGeometry x="300" y="180" width="120" height="80" as="geometry" />
        </mxCell>
        <mxCell id="NMOJ02SbNHNsowuzArKs-2" value="" style="ellipse;whiteSpace=wrap;html=1;aspect=fixed;fillColor=#a20025;fontColor=#ffffff;strokeColor=none;" vertex="1" parent="1">
          <mxGeometry x="310" y="200" width="20" height="20" as="geometry" />
        </mxCell>
        <mxCell id="NMOJ02SbNHNsowuzArKs-3" value="" style="ellipse;whiteSpace=wrap;html=1;aspect=fixed;fillColor=#a20025;fontColor=#ffffff;strokeColor=none;" vertex="1" parent="1">
          <mxGeometry x="390" y="220" width="20" height="20" as="geometry" />
        </mxCell>
        <mxCell id="NMOJ02SbNHNsowuzArKs-4" value="" style="ellipse;whiteSpace=wrap;html=1;aspect=fixed;fillColor=#a20025;fontColor=#ffffff;strokeColor=none;" vertex="1" parent="1">
          <mxGeometry x="340" y="240" width="20" height="20" as="geometry" />
        </mxCell>
        <mxCell id="NMOJ02SbNHNsowuzArKs-5" value="" style="ellipse;whiteSpace=wrap;html=1;aspect=fixed;fillColor=#a20025;fontColor=#ffffff;strokeColor=none;" vertex="1" parent="1">
          <mxGeometry x="350" y="190" width="20" height="20" as="geometry" />
        </mxCell>
        <mxCell id="NMOJ02SbNHNsowuzArKs-6" value="" style="endArrow=none;html=1;exitX=1;exitY=0.5;exitDx=0;exitDy=0;entryX=0;entryY=0.5;entryDx=0;entryDy=0;" edge="1" parent="1" source="NMOJ02SbNHNsowuzArKs-2" target="NMOJ02SbNHNsowuzArKs-5">
          <mxGeometry width="50" height="50" relative="1" as="geometry">
            <mxPoint x="410" y="560" as="sourcePoint" />
            <mxPoint x="460" y="510" as="targetPoint" />
          </mxGeometry>
        </mxCell>
        <mxCell id="NMOJ02SbNHNsowuzArKs-7" value="" style="endArrow=none;html=1;exitX=1;exitY=0.5;exitDx=0;exitDy=0;entryX=0.5;entryY=0;entryDx=0;entryDy=0;" edge="1" parent="1" source="NMOJ02SbNHNsowuzArKs-5" target="NMOJ02SbNHNsowuzArKs-3">
          <mxGeometry width="50" height="50" relative="1" as="geometry">
            <mxPoint x="390" y="430" as="sourcePoint" />
            <mxPoint x="440" y="380" as="targetPoint" />
          </mxGeometry>
        </mxCell>
        <mxCell id="NMOJ02SbNHNsowuzArKs-8" value="" style="endArrow=none;html=1;exitX=0.5;exitY=1;exitDx=0;exitDy=0;entryX=0;entryY=0.5;entryDx=0;entryDy=0;" edge="1" parent="1" source="NMOJ02SbNHNsowuzArKs-2" target="NMOJ02SbNHNsowuzArKs-4">
          <mxGeometry width="50" height="50" relative="1" as="geometry">
            <mxPoint x="390" y="430" as="sourcePoint" />
            <mxPoint x="440" y="380" as="targetPoint" />
          </mxGeometry>
        </mxCell>
        <mxCell id="NMOJ02SbNHNsowuzArKs-9" value="" style="endArrow=none;html=1;exitX=0.5;exitY=1;exitDx=0;exitDy=0;entryX=0.5;entryY=0;entryDx=0;entryDy=0;" edge="1" parent="1" source="NMOJ02SbNHNsowuzArKs-5" target="NMOJ02SbNHNsowuzArKs-4">
          <mxGeometry width="50" height="50" relative="1" as="geometry">
            <mxPoint x="390" y="430" as="sourcePoint" />
            <mxPoint x="440" y="380" as="targetPoint" />
          </mxGeometry>
        </mxCell>
        <mxCell id="NMOJ02SbNHNsowuzArKs-10" value="" style="endArrow=none;html=1;exitX=1;exitY=0.5;exitDx=0;exitDy=0;entryX=0.5;entryY=1;entryDx=0;entryDy=0;" edge="1" parent="1" source="NMOJ02SbNHNsowuzArKs-4" target="NMOJ02SbNHNsowuzArKs-3">
          <mxGeometry width="50" height="50" relative="1" as="geometry">
            <mxPoint x="390" y="430" as="sourcePoint" />
            <mxPoint x="440" y="380" as="targetPoint" />
          </mxGeometry>
        </mxCell>
        <mxCell id="NMOJ02SbNHNsowuzArKs-11" value="" style="endArrow=none;html=1;entryX=0;entryY=0.5;entryDx=0;entryDy=0;exitX=1;exitY=1;exitDx=0;exitDy=0;" edge="1" parent="1" source="NMOJ02SbNHNsowuzArKs-2" target="NMOJ02SbNHNsowuzArKs-3">
          <mxGeometry width="50" height="50" relative="1" as="geometry">
            <mxPoint x="390" y="220" as="sourcePoint" />
            <mxPoint x="440" y="170" as="targetPoint" />
          </mxGeometry>
        </mxCell>
        <mxCell id="NMOJ02SbNHNsowuzArKs-12" value="&lt;font style=&quot;font-size: 10px&quot;&gt;Controller Farm&lt;/font&gt;" style="text;html=1;strokeColor=none;fillColor=none;align=center;verticalAlign=middle;whiteSpace=wrap;rounded=0;" vertex="1" parent="1">
          <mxGeometry x="300" y="160" width="90" height="20" as="geometry" />
        </mxCell>
        <mxCell id="NMOJ02SbNHNsowuzArKs-13" value="&lt;font style=&quot;font-size: 8px&quot;&gt;Falken Agent&lt;/font&gt;" style="rounded=0;whiteSpace=wrap;html=1;fillColor=#d80073;fontColor=#ffffff;strokeColor=none;" vertex="1" parent="1">
          <mxGeometry x="196" y="350" width="70" height="30" as="geometry" />
        </mxCell>
        <mxCell id="NMOJ02SbNHNsowuzArKs-14" value="&lt;font style=&quot;font-size: 8px&quot;&gt;service-A&lt;/font&gt;" style="rounded=0;whiteSpace=wrap;html=1;fillColor=#e1d5e7;strokeColor=none;" vertex="1" parent="1">
          <mxGeometry x="196" y="400" width="70" height="30" as="geometry" />
        </mxCell>
        <mxCell id="NMOJ02SbNHNsowuzArKs-15" value="" style="rounded=0;whiteSpace=wrap;html=1;fillColor=#d80073;fontColor=#ffffff;strokeColor=none;" vertex="1" parent="1">
          <mxGeometry x="246" y="400" width="20" height="10" as="geometry" />
        </mxCell>
        <mxCell id="NMOJ02SbNHNsowuzArKs-16" value="" style="endArrow=none;html=1;exitX=0.75;exitY=0;exitDx=0;exitDy=0;entryX=0.5;entryY=1;entryDx=0;entryDy=0;" edge="1" parent="1" source="NMOJ02SbNHNsowuzArKs-14" target="NMOJ02SbNHNsowuzArKs-13">
          <mxGeometry width="50" height="50" relative="1" as="geometry">
            <mxPoint x="416" y="350" as="sourcePoint" />
            <mxPoint x="466" y="300" as="targetPoint" />
          </mxGeometry>
        </mxCell>
        <mxCell id="NMOJ02SbNHNsowuzArKs-17" value="&lt;font style=&quot;font-size: 8px&quot;&gt;Falken Agent&lt;/font&gt;" style="rounded=0;whiteSpace=wrap;html=1;fillColor=#d80073;fontColor=#ffffff;strokeColor=none;" vertex="1" parent="1">
          <mxGeometry x="326" y="350" width="70" height="30" as="geometry" />
        </mxCell>
        <mxCell id="NMOJ02SbNHNsowuzArKs-18" value="&lt;font style=&quot;font-size: 8px&quot;&gt;service-A&lt;/font&gt;" style="rounded=0;whiteSpace=wrap;html=1;fillColor=#e1d5e7;strokeColor=none;" vertex="1" parent="1">
          <mxGeometry x="326" y="400" width="70" height="30" as="geometry" />
        </mxCell>
        <mxCell id="NMOJ02SbNHNsowuzArKs-19" value="" style="rounded=0;whiteSpace=wrap;html=1;fillColor=#d80073;fontColor=#ffffff;strokeColor=none;" vertex="1" parent="1">
          <mxGeometry x="376" y="400" width="20" height="10" as="geometry" />
        </mxCell>
        <mxCell id="NMOJ02SbNHNsowuzArKs-20" value="" style="endArrow=none;html=1;exitX=0.75;exitY=0;exitDx=0;exitDy=0;entryX=0.5;entryY=1;entryDx=0;entryDy=0;" edge="1" parent="1" source="NMOJ02SbNHNsowuzArKs-18" target="NMOJ02SbNHNsowuzArKs-17">
          <mxGeometry width="50" height="50" relative="1" as="geometry">
            <mxPoint x="546" y="350" as="sourcePoint" />
            <mxPoint x="596" y="300" as="targetPoint" />
          </mxGeometry>
        </mxCell>
        <mxCell id="NMOJ02SbNHNsowuzArKs-21" value="&lt;font style=&quot;font-size: 8px&quot;&gt;Falken Agent&lt;/font&gt;" style="rounded=0;whiteSpace=wrap;html=1;fillColor=#d80073;fontColor=#ffffff;strokeColor=none;" vertex="1" parent="1">
          <mxGeometry x="446" y="350" width="70" height="30" as="geometry" />
        </mxCell>
        <mxCell id="NMOJ02SbNHNsowuzArKs-22" value="&lt;font style=&quot;font-size: 8px&quot;&gt;service-A&lt;/font&gt;" style="rounded=0;whiteSpace=wrap;html=1;fillColor=#e1d5e7;strokeColor=none;" vertex="1" parent="1">
          <mxGeometry x="446" y="400" width="70" height="30" as="geometry" />
        </mxCell>
        <mxCell id="NMOJ02SbNHNsowuzArKs-23" value="" style="rounded=0;whiteSpace=wrap;html=1;fillColor=#d80073;fontColor=#ffffff;strokeColor=none;" vertex="1" parent="1">
          <mxGeometry x="496" y="400" width="20" height="10" as="geometry" />
        </mxCell>
        <mxCell id="NMOJ02SbNHNsowuzArKs-24" value="" style="endArrow=none;html=1;exitX=0.75;exitY=0;exitDx=0;exitDy=0;entryX=0.5;entryY=1;entryDx=0;entryDy=0;" edge="1" parent="1" source="NMOJ02SbNHNsowuzArKs-22" target="NMOJ02SbNHNsowuzArKs-21">
          <mxGeometry width="50" height="50" relative="1" as="geometry">
            <mxPoint x="666" y="350" as="sourcePoint" />
            <mxPoint x="716" y="300" as="targetPoint" />
          </mxGeometry>
        </mxCell>
        <mxCell id="NMOJ02SbNHNsowuzArKs-25" value="&lt;font style=&quot;font-size: 8px&quot;&gt;service-A = &lt;br&gt;20% of total instance CPU&lt;/font&gt;" style="html=1;aspect=fixed;strokeColor=none;shadow=0;align=center;verticalAlign=top;fillColor=#3B8DF1;shape=mxgraph.gcp2.speed" vertex="1" parent="1">
          <mxGeometry x="450" y="180" width="40" height="22.8" as="geometry" />
        </mxCell>
        <mxCell id="NMOJ02SbNHNsowuzArKs-29" value="" style="endArrow=none;html=1;entryX=0.5;entryY=1;entryDx=0;entryDy=0;exitX=0.5;exitY=0;exitDx=0;exitDy=0;" edge="1" parent="1" source="NMOJ02SbNHNsowuzArKs-13" target="NMOJ02SbNHNsowuzArKs-1">
          <mxGeometry width="50" height="50" relative="1" as="geometry">
            <mxPoint x="380" y="370" as="sourcePoint" />
            <mxPoint x="430" y="320" as="targetPoint" />
          </mxGeometry>
        </mxCell>
        <mxCell id="NMOJ02SbNHNsowuzArKs-30" value="" style="endArrow=none;html=1;entryX=0.5;entryY=1;entryDx=0;entryDy=0;exitX=0.5;exitY=0;exitDx=0;exitDy=0;" edge="1" parent="1" source="NMOJ02SbNHNsowuzArKs-17" target="NMOJ02SbNHNsowuzArKs-1">
          <mxGeometry width="50" height="50" relative="1" as="geometry">
            <mxPoint x="215" y="360" as="sourcePoint" />
            <mxPoint x="370" y="270" as="targetPoint" />
          </mxGeometry>
        </mxCell>
        <mxCell id="NMOJ02SbNHNsowuzArKs-31" value="" style="endArrow=none;html=1;exitX=0.5;exitY=0;exitDx=0;exitDy=0;" edge="1" parent="1" source="NMOJ02SbNHNsowuzArKs-21">
          <mxGeometry width="50" height="50" relative="1" as="geometry">
            <mxPoint x="225" y="370" as="sourcePoint" />
            <mxPoint x="360" y="260" as="targetPoint" />
          </mxGeometry>
        </mxCell>
        <mxCell id="NMOJ02SbNHNsowuzArKs-32" value="&lt;font style=&quot;font-size: 8px&quot;&gt;service-A = &lt;br&gt;20% of local instance CPU&lt;/font&gt;" style="html=1;aspect=fixed;strokeColor=none;shadow=0;align=center;verticalAlign=top;fillColor=#3B8DF1;shape=mxgraph.gcp2.speed" vertex="1" parent="1">
          <mxGeometry x="196" y="440" width="40" height="22.8" as="geometry" />
        </mxCell>
        <mxCell id="NMOJ02SbNHNsowuzArKs-33" value="&lt;font style=&quot;font-size: 8px&quot;&gt;service-A = &lt;br&gt;20% of local instance CPU&lt;/font&gt;" style="html=1;aspect=fixed;strokeColor=none;shadow=0;align=center;verticalAlign=top;fillColor=#3B8DF1;shape=mxgraph.gcp2.speed" vertex="1" parent="1">
          <mxGeometry x="326" y="440" width="40" height="22.8" as="geometry" />
        </mxCell>
        <mxCell id="NMOJ02SbNHNsowuzArKs-34" value="&lt;font style=&quot;font-size: 8px&quot;&gt;service-A = &lt;br&gt;20% of local instance CPU&lt;/font&gt;" style="html=1;aspect=fixed;strokeColor=none;shadow=0;align=center;verticalAlign=top;fillColor=#3B8DF1;shape=mxgraph.gcp2.speed" vertex="1" parent="1">
          <mxGeometry x="446" y="440" width="40" height="22.8" as="geometry" />
        </mxCell>
        <mxCell id="NMOJ02SbNHNsowuzArKs-35" value="&lt;font style=&quot;font-size: 8px&quot;&gt;10API/Min&lt;/font&gt;" style="whiteSpace=wrap;html=1;shape=mxgraph.basic.oval_callout;fillColor=none;dashed=1;rotation=0;flipH=1;" vertex="1" parent="1">
          <mxGeometry x="140" y="390" width="50" height="25" as="geometry" />
        </mxCell>
        <mxCell id="NMOJ02SbNHNsowuzArKs-37" value="&lt;font style=&quot;font-size: 8px&quot;&gt;100API/Min&lt;/font&gt;" style="whiteSpace=wrap;html=1;shape=mxgraph.basic.oval_callout;fillColor=none;dashed=1;rotation=0;flipH=1;" vertex="1" parent="1">
          <mxGeometry x="276" y="380" width="50" height="25" as="geometry" />
        </mxCell>
        <mxCell id="NMOJ02SbNHNsowuzArKs-38" value="&lt;span style=&quot;font-size: 8px&quot;&gt;2API/min&lt;/span&gt;" style="whiteSpace=wrap;html=1;shape=mxgraph.basic.oval_callout;fillColor=none;dashed=1;rotation=0;flipH=1;" vertex="1" parent="1">
          <mxGeometry x="400" y="375" width="50" height="25" as="geometry" />
        </mxCell>
      </root>
    </mxGraphModel>
  </diagram>
</mxfile>
